<mxfile host="app.diagrams.net" modified="2023-10-16T20:08:35.931Z" agent="Mozilla/5.0 (Windows NT 10.0; Win64; x64) AppleWebKit/537.36 (KHTML, like Gecko) Chrome/117.0.0.0 Safari/537.36" version="22.0.4" etag="xFv4Ut-lzkn79nLyMnLS" type="github">
  <diagram name="PÃ gina-1" id="deNAbeQY0ancyv7xFG50">
    <mxGraphModel>
      <root>
        <mxCell id="0" />
        <mxCell id="1" parent="0" />
      </root>
    </mxGraphModel>
  </diagram>
</mxfile>
